<svg width="58" height="58" viewBox="0 0 58 58" fill="none" xmlns="http://www.w3.org/2000/svg" xmlns:xlink="http://www.w3.org/1999/xlink">
<path d="M28.556,8.945C20.733,8.945 14.333,15.557 14.333,23.705C14.333,31.853 20.733,38.466 28.556,38.466C36.378,38.466 42.778,31.853 42.778,23.705C42.778,15.557 36.378,8.945 28.556,8.945ZM13.693,38.466C6.155,38.761 0.111,43.897 0.111,50.274L0.111,56.178L57.001,56.178L57.001,50.274C57.001,43.897 51.027,38.761 43.418,38.466C39.578,42.067 34.316,44.37 28.556,44.37C22.796,44.37 17.533,42.067 13.693,38.466Z" transform="rotate(-0.478 28.556 32.561)" fill="#000000"/>
<path d="M28.556,-0.481C20.733,-0.481 14.333,6.132 14.333,14.28C14.333,22.428 20.733,29.04 28.556,29.04C36.378,29.04 42.778,22.428 42.778,14.28C42.778,6.132 36.378,-0.481 28.556,-0.481ZM13.693,29.04C6.155,29.336 0.111,34.472 0.111,40.849L0.111,46.753L57.001,46.753L57.001,40.849C57.001,34.472 51.027,29.336 43.418,29.04C39.578,32.642 34.316,34.945 28.556,34.945C22.796,34.945 17.533,32.642 13.693,29.04Z" transform="rotate(-0.478 28.556 23.136)" fill="#000000"/>
</svg>
