<svg width="62" height="62" viewBox="0 0 62 62" fill="none" xmlns="http://www.w3.org/2000/svg" xmlns:xlink="http://www.w3.org/1999/xlink">
<path d="M31,0C13.537,0 0,12.554 0,29.511C0,38.38 3.704,46.044 9.736,51.338C10.242,51.783 10.548,52.406 10.569,53.073L10.737,58.485C10.791,60.211 12.608,61.334 14.218,60.637L20.371,57.971C20.892,57.745 21.477,57.703 22.026,57.852C24.854,58.615 27.863,59.021 31,59.021C48.463,59.021 62,46.467 62,29.511C62,12.554 48.463,0 31,0Z" fill="url(#pf_0_66_37)"/>
<path d="M12.385,38.141L21.491,23.963C22.939,21.707 26.041,21.145 28.215,22.745L35.457,28.076C35.781,28.314 36.174,28.442 36.579,28.441C36.983,28.44 37.376,28.31 37.698,28.07L47.479,20.784C48.785,19.812 50.489,21.345 49.615,22.706L40.509,36.885C39.061,39.14 35.958,39.702 33.785,38.102L26.542,32.771C26.219,32.533 25.825,32.405 25.421,32.406C25.017,32.407 24.624,32.537 24.302,32.777L14.52,40.063C13.215,41.035 11.511,39.502 12.385,38.141Z" fill="#FFFFFF"/>
<defs>
<radialGradient id="pf_0_66_37" cx="0" cy="0" r="1" gradientUnits="userSpaceOnUse" gradientTransform="matrix(3377.75991 0 0 3314.936165 596.657 3026.066)">
<stop offset="0.301" stop-color="#2345BC"/>
<stop offset="0.655" stop-color="#0061A1" stop-opacity="0.83"/>
<stop offset="0.825" stop-color="#2421CB" stop-opacity="0.948"/>
<stop offset="0.9" stop-color="#A033FF"/>
<stop offset="0.9" stop-color="#5FC1D7"/>
<stop offset="0.935" stop-color="#4984F6"/>
</radialGradient>
</defs>
</svg>
