<svg width="80" height="78" viewBox="0 0 80 78" fill="none" xmlns="http://www.w3.org/2000/svg" xmlns:xlink="http://www.w3.org/1999/xlink">
<path d="M0,18.281C0,13.572 3.92,9.75 8.75,9.75L71.25,9.75C76.08,9.75 80,13.572 80,18.281L80,59.719C80,61.981 79.078,64.151 77.437,65.751C75.796,67.351 73.571,68.25 71.25,68.25L8.75,68.25C6.429,68.25 4.204,67.351 2.563,65.751C0.922,64.151 0,61.981 0,59.719L0,18.281ZM8.75,17.063C8.418,17.063 8.101,17.191 7.866,17.419C7.632,17.648 7.5,17.958 7.5,18.281L7.5,59.719C7.5,60.391 8.06,60.938 8.75,60.938L71.25,60.938C71.582,60.938 71.899,60.809 72.134,60.581C72.368,60.352 72.5,60.042 72.5,59.719L72.5,18.281C72.5,17.958 72.368,17.648 72.134,17.419C71.899,17.191 71.582,17.063 71.25,17.063L8.75,17.063Z" fill="#545454"/>
<path d="M30,51.475L30,26.53C29.999,26.314 30.057,26.101 30.169,25.914C30.28,25.727 30.44,25.572 30.633,25.466C30.826,25.359 31.045,25.304 31.266,25.307C31.488,25.31 31.705,25.37 31.895,25.482L53.215,37.957C53.399,38.065 53.552,38.218 53.657,38.401C53.763,38.584 53.819,38.79 53.819,39C53.819,39.21 53.763,39.416 53.657,39.599C53.552,39.782 53.399,39.935 53.215,40.043L31.895,52.518C31.705,52.63 31.489,52.69 31.268,52.693C31.046,52.696 30.828,52.642 30.635,52.536C30.443,52.43 30.282,52.275 30.171,52.089C30.059,51.903 30,51.691 30,51.475Z" fill="#545454"/>
</svg>
