<svg width="60" height="48" viewBox="0 0 60 48" fill="none" xmlns="http://www.w3.org/2000/svg" xmlns:xlink="http://www.w3.org/1999/xlink">
<path d="M15.333,5.5C15.333,7.047 14.561,8.531 13.185,9.625C11.81,10.719 9.945,11.333 8,11.333C6.055,11.333 4.19,10.719 2.814,9.625C1.439,8.531 0.667,7.047 0.667,5.5C0.667,3.953 1.439,2.469 2.814,1.375C4.19,0.281 6.055,-0.333 8,-0.333C9.945,-0.333 11.81,0.281 13.185,1.375C14.561,2.469 15.333,3.953 15.333,5.5ZM15.333,23C15.333,24.547 14.561,26.031 13.185,27.125C11.81,28.219 9.945,28.833 8,28.833C6.055,28.833 4.19,28.219 2.814,27.125C1.439,26.031 0.667,24.547 0.667,23C0.667,21.453 1.439,19.969 2.814,18.875C4.19,17.781 6.055,17.167 8,17.167C9.945,17.167 11.81,17.781 13.185,18.875C14.561,19.969 15.333,21.453 15.333,23ZM8,46.333C9.945,46.333 11.81,45.719 13.185,44.625C14.561,43.531 15.333,42.047 15.333,40.5C15.333,38.953 14.561,37.469 13.185,36.375C11.81,35.281 9.945,34.667 8,34.667C6.055,34.667 4.19,35.281 2.814,36.375C1.439,37.469 0.667,38.953 0.667,40.5C0.667,42.047 1.439,43.531 2.814,44.625C4.19,45.719 6.055,46.333 8,46.333ZM37.333,5.5C37.333,7.047 36.561,8.531 35.185,9.625C33.81,10.719 31.945,11.333 30,11.333C28.055,11.333 26.19,10.719 24.814,9.625C23.439,8.531 22.667,7.047 22.667,5.5C22.667,3.953 23.439,2.469 24.814,1.375C26.19,0.281 28.055,-0.333 30,-0.333C31.945,-0.333 33.81,0.281 35.185,1.375C36.561,2.469 37.333,3.953 37.333,5.5ZM30,28.833C31.945,28.833 33.81,28.219 35.185,27.125C36.561,26.031 37.333,24.547 37.333,23C37.333,21.453 36.561,19.969 35.185,18.875C33.81,17.781 31.945,17.167 30,17.167C28.055,17.167 26.19,17.781 24.814,18.875C23.439,19.969 22.667,21.453 22.667,23C22.667,24.547 23.439,26.031 24.814,27.125C26.19,28.219 28.055,28.833 30,28.833ZM37.333,40.5C37.333,42.047 36.561,43.531 35.185,44.625C33.81,45.719 31.945,46.333 30,46.333C28.055,46.333 26.19,45.719 24.814,44.625C23.439,43.531 22.667,42.047 22.667,40.5C22.667,38.953 23.439,37.469 24.814,36.375C26.19,35.281 28.055,34.667 30,34.667C31.945,34.667 33.81,35.281 35.185,36.375C36.561,37.469 37.333,38.953 37.333,40.5ZM52,11.333C53.945,11.333 55.81,10.719 57.185,9.625C58.561,8.531 59.333,7.047 59.333,5.5C59.333,3.953 58.561,2.469 57.185,1.375C55.81,0.281 53.945,-0.333 52,-0.333C50.055,-0.333 48.19,0.281 46.814,1.375C45.439,2.469 44.667,3.953 44.667,5.5C44.667,7.047 45.439,8.531 46.814,9.625C48.19,10.719 50.055,11.333 52,11.333ZM59.333,23C59.333,24.547 58.561,26.031 57.185,27.125C55.81,28.219 53.945,28.833 52,28.833C50.055,28.833 48.19,28.219 46.814,27.125C45.439,26.031 44.667,24.547 44.667,23C44.667,21.453 45.439,19.969 46.814,18.875C48.19,17.781 50.055,17.167 52,17.167C53.945,17.167 55.81,17.781 57.185,18.875C58.561,19.969 59.333,21.453 59.333,23ZM52,46.333C53.945,46.333 55.81,45.719 57.185,44.625C58.561,43.531 59.333,42.047 59.333,40.5C59.333,38.953 58.561,37.469 57.185,36.375C55.81,35.281 53.945,34.667 52,34.667C50.055,34.667 48.19,35.281 46.814,36.375C45.439,37.469 44.667,38.953 44.667,40.5C44.667,42.047 45.439,43.531 46.814,44.625C48.19,45.719 50.055,46.333 52,46.333Z" fill="#000000"/>
</svg>
