<svg width="90" height="90" viewBox="0 0 90 90" fill="none" xmlns="http://www.w3.org/2000/svg" xmlns:xlink="http://www.w3.org/1999/xlink">
<path d="M45,0.833C20.646,0.833 0.833,16.685 0.833,36.167C0.833,49.01 9.216,60.529 22.917,66.792L22.917,89.167L46.502,71.478C70.162,70.846 89.167,55.247 89.167,36.167C89.167,16.685 69.353,0.833 45,0.833ZM45,62.667L43.529,62.667L31.75,71.5L31.75,60.825L28.919,59.734C17.042,55.163 9.667,46.131 9.667,36.167C9.667,21.552 25.518,9.667 45,9.667C64.482,9.667 80.333,21.552 80.333,36.167C80.333,50.781 64.482,62.667 45,62.667Z" fill="#000000"/>
</svg>
