<svg width="100" height="100" viewBox="0 0 100 100" fill="none" xmlns="http://www.w3.org/2000/svg" xmlns:xlink="http://www.w3.org/1999/xlink">
<path d="M49,-0.167C21.86,-0.167 -0.167,21.86 -0.167,49C-0.167,76.14 21.86,98.167 49,98.167C76.14,98.167 98.167,76.14 98.167,49C98.167,21.86 76.14,-0.167 49,-0.167ZM49,19.5C58.489,19.5 66.208,27.219 66.208,36.708C66.208,46.198 58.489,53.917 49,53.917C39.511,53.917 31.792,46.198 31.792,36.708C31.792,27.219 39.511,19.5 49,19.5ZM49,88.333C39.019,88.333 27.219,84.302 18.812,74.173C27.424,67.417 38.054,63.744 49,63.744C59.946,63.744 70.576,67.417 79.188,74.173C70.781,84.302 58.981,88.333 49,88.333Z" fill="#000000"/>
</svg>
