<svg width="52" height="56" viewBox="0 0 52 56" fill="none" xmlns="http://www.w3.org/2000/svg" xmlns:xlink="http://www.w3.org/1999/xlink">
<path d="M48.896,16.495C47.619,13.147 45.721,10.107 43.316,7.558C40.917,5.001 38.068,2.972 34.932,1.588C31.795,0.204 28.434,-0.508 25.039,-0.508C21.644,-0.508 18.282,0.204 15.146,1.588C12.01,2.972 9.161,5.001 6.762,7.558C4.346,10.104 2.439,13.144 1.156,16.495C-0.139,19.826 -0.806,23.395 -0.807,27C-0.823,30.557 -0.173,34.081 1.104,37.368L-0.187,47.405C-0.448,48.696 -0.252,50.044 0.363,51.191C0.978,52.338 1.968,53.203 3.145,53.62C3.912,53.89 4.729,53.956 5.522,53.813L14.951,52.328C18.118,53.773 21.529,54.513 24.974,54.5C29.221,54.499 33.401,53.384 37.146,51.254C40.892,49.123 44.085,46.043 46.446,42.285C48.806,38.527 50.259,34.208 50.678,29.71C51.096,25.211 50.466,20.673 48.844,16.495L48.896,16.495ZM13.969,31.428C13.423,31.427 12.882,31.313 12.378,31.09C11.873,30.867 11.415,30.541 11.029,30.13C10.643,29.719 10.336,29.23 10.128,28.693C9.919,28.156 9.811,27.58 9.811,26.999C9.812,26.417 9.919,25.842 10.129,25.304C10.338,24.767 10.644,24.279 11.031,23.868C11.417,23.457 11.875,23.131 12.38,22.909C12.885,22.687 13.426,22.572 13.972,22.573C15.075,22.573 16.133,23.039 16.913,23.869C17.693,24.7 18.131,25.826 18.131,27C18.131,28.174 17.693,29.3 16.913,30.131C16.133,30.961 15.072,31.428 13.969,31.428ZM25.029,31.428C24.482,31.427 23.942,31.313 23.437,31.09C22.932,30.867 22.474,30.541 22.088,30.13C21.702,29.719 21.396,29.23 21.187,28.693C20.978,28.156 20.871,27.58 20.871,26.999C20.871,26.417 20.979,25.842 21.188,25.304C21.397,24.767 21.703,24.279 22.09,23.868C22.476,23.457 22.935,23.131 23.439,22.909C23.944,22.687 24.485,22.572 25.031,22.573C26.134,22.573 27.192,23.039 27.972,23.869C28.752,24.7 29.19,25.826 29.19,27C29.19,28.174 28.752,29.3 27.972,30.131C27.192,30.961 26.134,31.428 25.031,31.428M36.088,31.428C35.542,31.427 35.001,31.313 34.496,31.09C33.992,30.867 33.533,30.541 33.147,30.13C32.761,29.719 32.455,29.23 32.246,28.693C32.037,28.156 31.93,27.58 31.93,26.999C31.93,26.417 32.038,25.842 32.247,25.304C32.456,24.767 32.763,24.279 33.149,23.868C33.535,23.457 33.994,23.131 34.499,22.909C35.003,22.687 35.544,22.572 36.09,22.573C37.194,22.573 38.251,23.039 39.031,23.869C39.811,24.7 40.25,25.826 40.25,27C40.25,28.174 39.811,29.3 39.031,30.131C38.251,30.961 37.191,31.428 36.088,31.428Z" fill="#000000"/>
</svg>
